<svg width="87" height="33" viewBox="0 0 87 33" fill="none" xmlns="http://www.w3.org/2000/svg">
<g id="Group 1000006362">
<path id="Vector" d="M42.9845 0.000156631V7.17053L8.01949 7.17037V11.9821H22.0772C27.5965 11.9821 32.078 16.5107 32.078 22.03C32.078 27.5493 27.5965 32.078 22.1244 32.078H2.40585V24.0113H24.0585V19.1996H5.89669C2.40585 17.6429 0 14.1049 0 10.048C0 4.48148 4.48148 0 9.9536 0L42.9845 0.000156631Z" fill="#143374"/>
<rect id="Rectangle 3468100" x="36.7292" width="6.2552" height="32.078" fill="#143374"/>
<path id="Vector_2" d="M70.1972 4.00977H77.3257L66.6328 14.7023L77.3257 25.3949H70.1972L59.5046 14.7023L70.1972 4.00977Z" fill="#143374"/>
<path id="Vector_3" d="M58.6709 29.4473H68.4865L53.7628 14.7236L68.4865 -4.95911e-05H58.6709L43.9468 14.7236L58.6709 29.4473Z" fill="#143374"/>
<path id="Vector_4" d="M80.0346 5.614L81.465 7.04412L73.7526 14.7558L81.465 22.4683L80.0346 23.8984L70.8923 14.7558L80.0346 5.614Z" fill="#143374"/>
<path id="Vector_5" d="M85.2472 7.69843L86.3389 8.78984L80.4531 14.6751L86.3389 20.5609L85.2472 21.6523L78.2702 14.6751L85.2472 7.69843Z" fill="#143374"/>
</g>
</svg>
